<?xml version="1.0" encoding="UTF-8" standalone="no"?>
<!-- Created with Inkscape (http://www.inkscape.org/) -->

<svg
   width="12.69999mm"
   height="12.7mm"
   viewBox="0 0 12.69999 12.7"
   version="1.1"
   id="svg111794"
   inkscape:version="1.1 (c68e22c387, 2021-05-23)"
   sodipodi:docname="vector-knob-2.svg"
   xmlns:inkscape="http://www.inkscape.org/namespaces/inkscape"
   xmlns:sodipodi="http://sodipodi.sourceforge.net/DTD/sodipodi-0.dtd"
   xmlns:xlink="http://www.w3.org/1999/xlink"
   xmlns="http://www.w3.org/2000/svg"
   xmlns:svg="http://www.w3.org/2000/svg"
   xmlns:rdf="http://www.w3.org/1999/02/22-rdf-syntax-ns#"
   xmlns:cc="http://creativecommons.org/ns#"
   xmlns:dc="http://purl.org/dc/elements/1.1/">
  <defs
     id="defs111788">
    <marker
       style="overflow:visible"
       id="marker3476"
       refX="0.0"
       refY="0.0"
       orient="auto"
       inkscape:stockid="DotS"
       inkscape:isstock="true">
      <path
         transform="scale(0.2) translate(7.4, 1)"
         style="fill-rule:evenodd;fill:context-stroke;stroke:context-stroke;stroke-width:1.0pt"
         d="M -2.5,-1.0 C -2.5,1.7600000 -4.7400000,4.0 -7.5,4.0 C -10.260000,4.0 -12.5,1.7600000 -12.5,-1.0 C -12.5,-3.7600000 -10.260000,-6.0 -7.5,-6.0 C -4.7400000,-6.0 -2.5,-3.7600000 -2.5,-1.0 z "
         id="path3474" />
    </marker>
    <marker
       style="overflow:visible"
       id="DotM"
       refX="0.0"
       refY="0.0"
       orient="auto"
       inkscape:stockid="DotM"
       inkscape:isstock="true">
      <path
         transform="scale(0.4) translate(7.4, 1)"
         style="fill-rule:evenodd;fill:context-stroke;stroke:context-stroke;stroke-width:1.0pt"
         d="M -2.5,-1.0 C -2.5,1.7600000 -4.7400000,4.0 -7.5,4.0 C -10.260000,4.0 -12.5,1.7600000 -12.5,-1.0 C -12.5,-3.7600000 -10.260000,-6.0 -7.5,-6.0 C -4.7400000,-6.0 -2.5,-3.7600000 -2.5,-1.0 z "
         id="path3216" />
    </marker>
    <marker
       style="overflow:visible"
       id="marker3458"
       refX="0.0"
       refY="0.0"
       orient="auto"
       inkscape:stockid="DotS"
       inkscape:isstock="true">
      <path
         transform="scale(0.2) translate(7.4, 1)"
         style="fill-rule:evenodd;fill:context-stroke;stroke:context-stroke;stroke-width:1.0pt"
         d="M -2.5,-1.0 C -2.5,1.7600000 -4.7400000,4.0 -7.5,4.0 C -10.260000,4.0 -12.5,1.7600000 -12.5,-1.0 C -12.5,-3.7600000 -10.260000,-6.0 -7.5,-6.0 C -4.7400000,-6.0 -2.5,-3.7600000 -2.5,-1.0 z "
         id="path3456" />
    </marker>
    <marker
       inkscape:stockid="DistanceStart"
       orient="auto"
       refY="0.0"
       refX="0.0"
       id="DistanceStart"
       style="overflow:visible"
       inkscape:isstock="true">
      <g
         id="g2300">
        <path
           id="path2306"
           d="M 0,0 L 2,0"
           style="fill:none;stroke:context-fill;stroke-width:1.15;stroke-linecap:square" />
        <path
           id="path2302"
           d="M 0,0 L 13,4 L 9,0 13,-4 L 0,0 z "
           style="fill:context-stroke;fill-rule:evenodd;stroke:none" />
        <path
           id="path2304"
           d="M 0,-4 L 0,40"
           style="fill:none;stroke:context-stroke;stroke-width:1;stroke-linecap:square" />
      </g>
    </marker>
    <marker
       style="overflow:visible"
       id="DotS"
       refX="0.0"
       refY="0.0"
       orient="auto"
       inkscape:stockid="DotS"
       inkscape:isstock="true">
      <path
         transform="scale(0.2) translate(7.4, 1)"
         style="fill-rule:evenodd;fill:context-stroke;stroke:context-stroke;stroke-width:1.0pt"
         d="M -2.5,-1.0 C -2.5,1.7600000 -4.7400000,4.0 -7.5,4.0 C -10.260000,4.0 -12.5,1.7600000 -12.5,-1.0 C -12.5,-3.7600000 -10.260000,-6.0 -7.5,-6.0 C -4.7400000,-6.0 -2.5,-3.7600000 -2.5,-1.0 z "
         id="path3219" />
    </marker>
    <marker
       style="overflow:visible"
       id="Arrow1Sstart"
       refX="0.0"
       refY="0.0"
       orient="auto"
       inkscape:stockid="Arrow1Sstart"
       inkscape:isstock="true">
      <path
         transform="scale(0.2) translate(6,0)"
         style="fill-rule:evenodd;fill:context-stroke;stroke:context-stroke;stroke-width:1.0pt"
         d="M 0.0,0.0 L 5.0,-5.0 L -12.5,0.0 L 5.0,5.0 L 0.0,0.0 z "
         id="path3164" />
    </marker>
    <marker
       style="overflow:visible"
       id="Arrow2Lstart"
       refX="0.0"
       refY="0.0"
       orient="auto"
       inkscape:stockid="Arrow2Lstart"
       inkscape:isstock="true">
      <path
         transform="scale(1.1) translate(1,0)"
         d="M 8.7185878,4.0337352 L -2.2072895,0.016013256 L 8.7185884,-4.0017078 C 6.9730900,-1.6296469 6.9831476,1.6157441 8.7185878,4.0337352 z "
         style="fill-rule:evenodd;fill:context-stroke;stroke-width:0.62500000;stroke-linejoin:round"
         id="path3170" />
    </marker>
    <linearGradient
       inkscape:collect="always"
       id="linearGradient13528">
      <stop
         style="stop-color:#aaf2e8;stop-opacity:1"
         offset="0"
         id="stop13524" />
      <stop
         style="stop-color:#2a343b;stop-opacity:1"
         offset="1"
         id="stop13526" />
    </linearGradient>
    <linearGradient
       inkscape:collect="always"
       id="linearGradient8685">
      <stop
         style="stop-color:#395d5d;stop-opacity:1"
         offset="0"
         id="stop8681" />
      <stop
         style="stop-color:#a1e4db;stop-opacity:1"
         offset="1"
         id="stop8683" />
    </linearGradient>
    <linearGradient
       id="linearGradient5707-0"
       gradientTransform="translate(711.58704,167.3062)"
       gradientUnits="userSpaceOnUse"
       y2="0"
       x2="34.336899"
       y1="0"
       x1="-34.336899">
      <stop
         id="stop5709-6"
         offset="0"
         style="stop-opacity:1;stop-color:#231f20" />
      <stop
         id="stop5711-6"
         offset="1"
         style="stop-opacity:1;stop-color:#a7a9ac" />
    </linearGradient>
    <linearGradient
       id="linearGradient5727-1"
       spreadMethod="pad"
       gradientTransform="matrix(0.999115,0.04205,-0.04205,0.999115,711.58673,167.30647)"
       gradientUnits="userSpaceOnUse"
       y2="0"
       x2="29.6171"
       y1="0"
       x1="-29.6171">
      <stop
         id="stop5729-8"
         offset="0"
         style="stop-opacity:1;stop-color:#bcbec0" />
      <stop
         id="stop5731-4"
         offset="1"
         style="stop-opacity:1;stop-color:#231f20" />
    </linearGradient>
    <clipPath
       id="clipPath5771-7"
       clipPathUnits="userSpaceOnUse">
      <path
         inkscape:connector-curvature="0"
         id="path5773-8"
         d="m 646.4,196.498 17.226,-47.201 -47.515,-17.34 -17.226,47.2 47.515,17.341" />
    </clipPath>
    <clipPath
       id="clipPath5777-8"
       clipPathUnits="userSpaceOnUse">
      <path
         inkscape:connector-curvature="0"
         id="path5779-2"
         d="m 640.892,141.001 -0.165,0.076 -0.454,1.244 1.36,0.496 0.406,-1.11 0.17,-0.089 0.121,0.044 0.934,0.492 0.576,0.347 -0.165,0.076 -0.181,0.495 -0.121,-0.044 -0.225,0.615 0.62,0.226 0.697,0.391 0.18,-0.495 0.122,0.044 0.18,-0.495 0.619,0.226 0.45,0.316 0.562,0.342 -0.165,0.076 -0.137,0.374 -0.121,-0.044 -0.137,0.375 -0.121,-0.045 -0.132,0.362 0.243,0.088 0.328,0.271 0.198,0.209 0.334,0.258 0.087,-0.24 0.122,0.044 0.092,-0.254 0.122,0.044 0.088,-0.241 0.121,0.044 0.093,-0.254 0.377,0.138 0.198,0.209 0.328,0.271 0.199,0.209 0.32,0.253 -0.165,0.076 -0.093,0.254 -0.121,-0.044 -0.088,0.241 -0.122,-0.044 -0.092,0.254 -0.122,-0.044 -0.131,0.361 0.242,0.088 0.803,0.854 0.044,-0.12 0.134,0.049 0.088,-0.241 0.121,0.044 0.093,-0.254 0.121,0.044 0.088,-0.24 0.17,-0.09 0.256,0.093 0.194,0.223 0.077,0.164 0.199,0.209 0.09,0.17 0.392,0.431 -0.33,0.152 -0.093,0.255 -0.121,-0.045 -0.165,0.076 -0.093,0.255 -0.135,-0.049 0.047,0.289 0.199,0.209 0.077,0.165 0.194,0.222 0.09,0.17 0.199,0.209 0.044,-0.121 0.335,-0.165 0.134,0.049 0.089,-0.241 0.33,-0.153 0.242,0.089 0.168,0.334 0.199,0.209 0.226,0.507 0.212,0.214 -0.514,0.237 -0.087,0.241 -0.121,-0.044 -0.336,0.165 0.034,0.286 0.149,0.342 0.212,0.214 0.155,0.329 0.194,0.223 0.048,-0.134 0.844,-0.39 0.256,0.094 0.699,1.513 -0.291,0.046 -0.844,0.389 0.033,0.285 0.395,0.842 0.194,0.222 0.048,-0.134 0.166,-0.076 0.3,-0.027 0.33,-0.153 0.242,0.089 0.091,0.17 0.095,0.868 0.241,0.512 -0.3,0.027 -0.166,0.077 -0.291,0.045 -0.343,0.147 0.075,0.589 0.077,0.164 0.062,0.584 0.212,0.214 0.044,-0.121 c 1.488,-0.397 0.877,0.063 1.406,1.499 l -0.407,-0.012 -0.878,0.104 0.124,1.167 -0.088,0.241 0.542,0.061 0.421,0.017 0.364,0.133 0.062,0.583 0.002,0.411 0.062,0.584 -1.255,-0.034 -0.105,1.084 -0.137,0.374 0.534,0.043 0.421,0.018 0.498,0.181 -0.178,1.618 -1.327,-0.211 -0.139,0.798 -0.224,0.616 0.785,0.149 0.606,0.222 -0.046,0.544 -0.24,1.034 -1.283,-0.332 -0.494,1.352 1.361,0.496 -0.586,1.605 -1.239,-0.452 -0.17,0.09 -0.494,1.351 1.239,0.452 -0.17,0.09 -0.356,0.976 -0.135,-0.049 -0.18,0.495 -0.563,-0.341 -0.619,-0.227 -0.224,0.616 -0.122,-0.044 -0.273,0.749 0.363,0.133 0.653,0.511 -0.165,0.076 -0.181,0.495 -0.121,-0.044 -0.181,0.495 -0.121,-0.044 -0.136,0.374 -0.455,-0.302 -0.333,-0.258 -0.485,-0.177 -0.131,0.361 -0.122,-0.044 -0.18,0.495 -0.135,-0.049 -0.181,0.495 0.256,0.093 0.392,0.431 0.334,0.258 -0.166,0.077 -0.092,0.254 -0.122,-0.045 -0.088,0.241 -0.134,-0.049 -0.137,0.375 -0.121,-0.044 -0.088,0.24 -0.121,-0.044 -0.093,0.254 -0.803,-0.854 -0.256,-0.093 -0.165,0.076 -0.087,0.241 -0.122,-0.044 -0.092,0.254 -0.122,-0.044 -0.165,0.076 -0.093,0.254 -0.134,-0.049 c 0.236,0.481 0.606,0.889 0.926,1.308 l -0.335,0.166 -0.088,0.241 -0.121,-0.044 -0.179,0.071 -0.093,0.254 -0.121,-0.044 -0.165,0.076 -0.093,0.254 -0.121,-0.044 -0.286,0.032 0.044,-0.12 -0.163,-0.348 -0.199,-0.209 -0.077,-0.164 -0.256,-0.094 -0.495,0.229 -0.093,0.254 -0.121,-0.045 -0.088,0.241 -0.135,-0.049 0.042,0.304 0.395,0.841 0.198,0.209 -0.679,0.313 -0.092,0.254 -0.122,-0.044 -0.508,0.224 -0.292,0.045 0.049,-0.134 -0.155,-0.329 -0.211,-0.214 -0.073,-0.178 -0.242,-0.088 -1.015,0.479 0.034,0.285 0.467,1.019 -0.286,0.032 -1.179,0.555 -0.3,0.027 0.044,-0.12 -0.39,-0.855 -0.243,-0.089 -0.335,0.166 -0.3,0.027 -0.5,0.242 0.033,0.285 0.467,1.02 c -0.631,0.057 -1.206,0.378 -1.842,0.449 l 0.048,-0.134 -0.077,-0.165 -0.033,-0.284 -0.24,-0.513 -0.243,-0.088 c -0.358,0.138 -0.742,0.157 -1.1,0.296 l 0.137,1.172 0.077,0.164 -1.755,0.209 0.049,-0.134 -0.095,-0.869 -0.09,-0.169 -0.243,-0.089 -1.164,0.136 -0.011,0.406 0.029,0.299 -0.016,0.418 0.034,0.285 -1.241,-0.028 -0.543,-0.061 0.137,-0.375 0.011,-0.406 -0.029,-0.298 -0.377,-0.138 -0.833,-0.016 -0.287,0.032 -0.041,1.243 -0.529,-0.056 -0.834,-0.016 -0.542,-0.062 0.225,-0.615 0.059,-0.54 -0.74,-0.27 -0.664,-0.106 -0.207,1.32 -1.816,-0.375 0.405,-1.111 -1.36,-0.496 -0.45,1.231 -1.602,-0.585 0.449,-1.231 -1.482,-0.541 -0.405,1.111 -0.831,-0.44 -0.741,-0.271 0.229,-0.628 0.122,0.044 0.224,-0.615 0.179,-0.072 -0.697,-0.39 -0.741,-0.271 -0.131,0.362 -0.135,-0.05 -0.137,0.375 -0.121,-0.044 -0.137,0.374 -0.967,-0.777 -0.377,-0.138 0.136,-0.375 0.121,0.045 0.132,-0.362 0.121,0.045 0.137,-0.375 0.179,-0.071 -0.982,-0.783 -0.363,-0.132 -0.093,0.254 -0.135,-0.05 -0.131,0.362 -0.121,-0.044 -0.093,0.254 -0.121,-0.045 -0.088,0.241 -0.334,-0.258 -0.198,-0.209 -0.32,-0.253 -0.207,-0.227 -0.242,-0.088 0.088,-0.241 0.121,0.044 0.093,-0.254 0.121,0.044 0.088,-0.241 0.121,0.044 0.093,-0.254 0.134,0.049 0.088,-0.24 0.165,-0.077 -0.816,-0.858 -0.363,-0.133 -0.165,0.076 -0.088,0.241 -0.121,-0.044 -0.093,0.254 -0.135,-0.049 -0.165,0.076 -0.093,0.254 -0.121,-0.044 -0.286,0.032 0.044,-0.121 -0.207,-0.227 -0.078,-0.164 -0.198,-0.209 -0.078,-0.165 -0.206,-0.227 -0.034,-0.285 0.165,-0.076 0.122,0.044 0.092,-0.254 0.179,-0.072 0.121,0.045 0.088,-0.241 0.335,-0.166 -0.198,-0.209 -0.078,-0.164 -0.207,-0.228 -0.077,-0.164 -0.198,-0.209 -0.256,-0.093 -0.501,0.241 -0.088,0.241 -0.121,-0.044 -0.348,0.161 -0.287,0.032 0.044,-0.121 -0.544,-1.184 -0.029,-0.298 1.009,-0.466 -0.557,-1.189 -0.243,-0.088 -1.179,0.555 0.044,-0.121 -0.545,-1.184 -0.047,-0.29 1.193,-0.55 -0.558,-1.189 -0.242,-0.089 -0.335,0.166 -0.3,0.027 -0.166,0.076 -0.291,0.046 0.049,-0.134 -0.155,-0.329 -0.041,-0.304 -0.232,-0.494 -0.029,-0.298 0.331,-0.153 0.291,-0.045 0.344,-0.147 0.286,-0.032 -0.077,-0.165 -0.029,-0.298 -0.077,-0.165 -0.042,-0.303 -0.154,-0.33 -0.243,-0.088 -1.177,0.131 0.044,-0.12 -0.166,-1.47 0.179,-0.072 1.164,-0.136 -0.137,-1.172 -0.077,-0.164 -0.364,-0.133 -0.3,0.027 -0.833,-0.016 0.136,-0.375 0.042,-1.243 0.877,-0.104 0.408,0.012 -0.029,-0.298 0.011,-0.406 -0.075,-0.588 -0.364,-0.133 -0.421,-0.017 -0.528,-0.057 0.131,-0.361 0.018,-0.843 0.059,-0.539 1.327,0.212 0.212,-1.333 -0.62,-0.226 -0.789,-0.137 0.273,-0.749 0.192,-0.901 1.318,0.194 0.328,-1.276 -1.239,-0.452 0.586,-1.605 1.239,0.452 0.454,-1.244 0.165,-0.076 -1.226,-0.448 0.318,-0.869 0.121,0.044 0.312,-0.856 0.741,0.27 0.576,0.347 0.224,-0.616 0.122,0.044 0.224,-0.615 -0.648,-0.524 -0.377,-0.138 0.181,-0.495 0.121,0.044 0.132,-0.361 0.135,0.049 0.136,-0.375 0.121,0.045 0.137,-0.375 0.485,0.177 0.648,0.525 0.093,-0.255 0.134,0.049 0.137,-0.374 0.121,0.044 0.132,-0.361 0.335,-0.166 -0.319,-0.253 -0.212,-0.214 -0.315,-0.266 -0.256,-0.094 0.132,-0.361 0.135,0.049 0.092,-0.254 0.122,0.044 0.131,-0.361 0.121,0.044 0.093,-0.254 0.122,0.044 0.087,-0.24 0.378,0.137 0.319,0.253 0.212,0.214 0.32,0.253 0.088,-0.241 0.121,0.045 0.093,-0.255 0.121,0.045 0.088,-0.241 0.514,-0.237 -0.411,-0.423 -0.077,-0.164 -0.406,-0.436 -0.033,-0.286 0.121,0.045 0.093,-0.255 0.179,-0.071 0.121,0.044 0.093,-0.254 0.165,-0.076 0.121,0.044 0.088,-0.241 0.165,-0.076 0.256,0.094 0.198,0.209 0.078,0.164 0.198,0.209 0.091,0.17 0.194,0.222 0.048,-0.134 0.122,0.044 0.088,-0.24 0.121,0.044 0.088,-0.241 0.183,-0.085 0.121,0.045 0.088,-0.241 0.335,-0.166 c -0.281,-0.403 -0.737,-0.766 -0.805,-1.264 l 1.358,-0.626 0.243,0.088 0.317,0.677 0.32,0.253 0.044,-0.12 1.192,-0.551 -0.212,-0.213 -0.467,-1.02 1.523,-0.702 0.122,0.044 0.467,1.02 0.198,0.208 0.044,-0.12 0.844,-0.389 0.305,-0.041 c -0.131,-0.351 -0.273,-1.009 -0.335,-1.381 l 0.33,-0.152 0.291,-0.045 0.165,-0.076 0.3,-0.027 0.165,-0.077 0.243,0.089 0.245,0.499 0.028,0.298 0.078,0.165 0.212,0.214 0.044,-0.121 c 0.29,0 0.917,-0.256 1.207,-0.256 l -0.077,-0.165 -0.137,-1.172 0.165,-0.076 0.305,-0.041 0.165,-0.076 0.287,-0.032 0.165,-0.076 0.304,-0.04 0.243,0.088 0.072,0.178 0.109,0.874 -0.093,0.254 0.413,-0.001 1.177,-0.131 -0.047,-0.29 0.016,-0.419 -0.034,-0.285 0.016,-0.419 0.586,-0.059 0.412,-10e-4 0.287,-0.032 0.377,0.138 0.061,0.583 -0.002,0.424 -0.087,0.241 0.828,0.029 0.286,-0.032 0.413,-0.001 0.026,-0.824 0.059,-0.539 1.077,0.104 0.619,0.226 -0.059,0.54 -0.23,0.628 1.618,0.166 0.06,-0.539 0.103,-0.66 0.785,0.15 0.862,0.315 -0.041,0.531 -0.23,0.629 1.347,0.491 0.498,-1.364 1.737,0.634" />
    </clipPath>
    <clipPath
       id="clipPath5789-9"
       clipPathUnits="userSpaceOnUse">
      <path
         inkscape:connector-curvature="0"
         id="path5791-1"
         d="m 644.988,193.462 15.648,-42.876 -43.448,-15.856 -15.647,42.875 43.447,15.857" />
    </clipPath>
    <clipPath
       id="clipPath5795-3"
       clipPathUnits="userSpaceOnUse">
      <path
         inkscape:connector-curvature="0"
         id="path5797-5"
         d="m 641.072,143.584 c 11.327,5.291 16.33,19.112 10.871,30.437 l -0.123,-0.045 -0.315,0.863 -0.123,-0.045 -0.315,0.863 -0.123,-0.045 -0.27,0.741 -0.124,-0.045 -0.181,0.499 -0.124,-0.046 -0.181,0.499 -0.124,-0.045 -0.177,0.486 -0.123,-0.045 -0.182,0.498 -0.123,-0.045 -0.089,0.243 -0.123,-0.045 -0.137,0.377 -0.124,-0.045 -0.133,0.365 -0.123,-0.045 -0.137,0.377 -0.123,-0.046 -0.133,0.365 -0.124,-0.045 -0.093,0.255 -0.135,-0.049 -0.089,0.243 -0.123,-0.045 -0.089,0.243 -0.123,-0.045 -0.093,0.255 -0.123,-0.044 -0.089,0.243 -0.123,-0.045 -0.133,0.364 -0.123,-0.045 -0.094,0.255 -0.123,-0.044 -0.088,0.243 -0.124,-0.045 -0.167,0.076 -0.093,0.255 -0.123,-0.044 -0.089,0.243 -0.123,-0.045 -0.168,0.076 -0.088,0.243 -0.123,-0.045 -0.094,0.256 -0.123,-0.046 -0.167,0.077 -0.089,0.243 -0.123,-0.045 -0.168,0.077 -0.093,0.255 -0.123,-0.045 -0.335,0.153 -0.089,0.243 -0.123,-0.044 -0.339,0.165 -0.089,0.243 -0.123,-0.045 -0.507,0.242 -0.089,0.243 -0.123,-0.045 -1.524,0.697 -0.093,0.255 -0.247,-0.09 -1.512,0.701 -0.29,0.032 -0.507,0.242 -0.291,0.032 -0.335,0.153 c -0.724,0.149 -1.402,0.439 -2.144,0.484 -1.687,0.569 -3.556,0.452 -5.336,0.435 -3.061,-0.18 -5.734,-0.922 -8.635,-2.035 l 0.044,-0.122 c -11.567,-5.475 -16.156,-18.594 -11.051,-30.365 l 0.123,0.045 0.359,-0.984 0.123,0.045 0.315,-0.863 0.136,0.049 0.27,-0.741 0.123,0.045 0.182,-0.498 0.123,0.045 0.133,-0.365 0.124,0.045 0.181,-0.498 0.124,0.045 0.181,-0.498 0.124,0.044 0.133,-0.364 0.123,0.045 0.137,-0.377 0.123,0.045 0.133,-0.365 0.124,0.045 0.088,-0.243 0.123,0.045 0.138,-0.377 0.123,0.045 0.133,-0.364 0.123,0.045 0.093,-0.255 0.124,0.045 0.088,-0.244 0.123,0.045 0.089,-0.243 0.123,0.045 0.093,-0.255 0.123,0.045 0.089,-0.243 0.124,0.045 0.088,-0.243 0.123,0.045 0.094,-0.255 0.123,0.044 0.088,-0.243 0.168,-0.076 0.123,0.045 0.093,-0.255 0.168,-0.077 0.123,0.045 0.088,-0.243 0.124,0.045 0.088,-0.243 0.172,-0.089 0.123,0.045 0.089,-0.243 0.168,-0.077 0.123,0.045 0.089,-0.243 0.339,-0.165 0.135,0.049 0.089,-0.243 0.335,-0.153 0.123,0.045 0.093,-0.255 0.503,-0.23 0.123,0.045 0.093,-0.255 3.531,-1.645 0.303,-0.027 0.507,-0.242 0.291,-0.032 0.335,-0.153 c 0.516,-0.114 1.038,-0.282 1.546,-0.413 3.803,-0.747 6.983,-0.702 10.818,0.298 l 3.83,1.398" />
    </clipPath>
    <clipPath
       id="clipPath5807-9"
       clipPathUnits="userSpaceOnUse">
      <path
         inkscape:connector-curvature="0"
         id="path5809-8"
         d="m 645.133,193.341 15.4,-42.195 -43.504,-15.877 -15.399,42.195 43.503,15.877" />
    </clipPath>
    <clipPath
       id="clipPath5813-4"
       clipPathUnits="userSpaceOnUse">
      <path
         inkscape:connector-curvature="0"
         id="path5815-0"
         d="m 640.534,145.067 c 10.803,5.203 15.1,17.586 10.044,28.454 l -0.123,-0.045 -0.314,0.861 -0.124,-0.045 -0.318,0.873 -0.123,-0.045 -0.223,0.61 -0.124,-0.045 -0.183,0.502 -0.123,-0.045 -0.179,0.491 -0.124,-0.045 -0.178,0.49 -0.124,-0.045 -0.183,0.502 -0.123,-0.044 -0.088,0.238 -0.123,-0.044 -0.135,0.37 -0.124,-0.045 -0.135,0.371 -0.123,-0.045 -0.136,0.371 -0.123,-0.045 -0.091,0.251 -0.124,-0.045 -0.135,0.371 -0.123,-0.045 -0.088,0.239 -0.123,-0.045 -0.092,0.251 -0.123,-0.045 -0.092,0.251 -0.123,-0.045 -0.087,0.239 -0.123,-0.045 -0.092,0.252 -0.124,-0.045 -0.091,0.251 -0.123,-0.045 -0.088,0.239 -0.123,-0.045 -0.171,0.086 -0.088,0.24 -0.123,-0.045 -0.092,0.251 -0.123,-0.045 -0.167,0.075 -0.092,0.251 -0.123,-0.045 -0.091,0.251 -0.124,-0.045 -0.334,0.149 -0.092,0.251 -0.123,-0.045 -0.167,0.075 -0.091,0.251 -0.124,-0.045 -0.338,0.161 -0.087,0.239 -0.124,-0.045 -0.676,0.323 -0.087,0.239 -0.124,-0.045 -1.01,0.471 -0.092,0.252 -0.246,-0.091 -1.023,0.468 -0.291,0.029 -0.676,0.322 -0.29,0.03 c -0.322,0.154 -1.72,0.538 -2.01,0.527 -1.176,0.316 -2.437,0.439 -3.679,0.473 -3.503,0.064 -6.775,-0.656 -10.049,-1.986 l 0.044,-0.12 c -10.843,-5.245 -14.887,-17.292 -10.105,-28.327 l 0.124,0.045 0.318,-0.873 0.124,0.045 0.314,-0.861 0.123,0.045 0.227,-0.622 0.123,0.045 0.179,-0.491 0.124,0.045 0.179,-0.49 0.123,0.045 0.183,-0.502 0.124,0.045 0.179,-0.491 0.123,0.045 0.091,-0.251 0.124,0.045 0.135,-0.371 0.123,0.045 0.136,-0.37 0.123,0.045 0.135,-0.371 0.124,0.045 0.087,-0.239 0.123,0.045 0.136,-0.371 0.123,0.045 0.091,-0.251 0.124,0.045 0.092,-0.251 0.123,0.045 0.087,-0.24 0.124,0.046 0.091,-0.252 0.123,0.045 0.092,-0.251 0.123,0.045 0.088,-0.239 0.123,0.045 0.092,-0.251 0.167,-0.075 0.123,0.045 0.092,-0.251 0.123,0.045 0.087,-0.239 0.171,-0.087 0.124,0.045 0.087,-0.239 0.123,0.045 0.092,-0.251 0.338,-0.161 0.124,0.045 0.087,-0.239 0.184,-0.082 0.123,0.045 0.087,-0.24 0.338,-0.161 0.124,0.045 0.092,-0.251 0.672,-0.31 0.123,0.045 0.091,-0.251 2.527,-1.179 0.29,-0.03 0.672,-0.31 0.295,-0.042 c 0.33,-0.137 1.719,-0.538 2.009,-0.527 l 0.167,-0.075 0.597,-0.066 0.167,-0.075 2.041,-0.231 0.418,0.004 c 2.171,-0.13 4.354,0.166 6.472,0.681 l 3.835,1.4" />
    </clipPath>
    <clipPath
       id="clipPath5827-7"
       clipPathUnits="userSpaceOnUse">
      <path
         inkscape:connector-curvature="0"
         id="path5829-6"
         d="m 649.347,179.791 7.17,-19.646 -4.942,-1.804 -7.17,19.646 4.942,1.804" />
    </clipPath>
    <clipPath
       id="clipPath5833-3"
       clipPathUnits="userSpaceOnUse">
      <path
         inkscape:connector-curvature="0"
         id="path5835-6"
         d="m 651.918,158.744 c 1.047,4.913 0.903,9.826 -1.368,14.488 l -0.123,-0.045 -0.451,1.236 -0.124,-0.045 -0.225,0.618 -0.124,-0.045 -0.223,0.613 -0.123,-0.045 -0.226,0.618 -0.125,-0.046 -0.18,0.496 -0.124,-0.045 -0.136,0.373 -0.123,-0.045 -0.134,0.368 -0.123,-0.045 -0.137,0.373 -0.124,-0.046 -0.135,0.368 -0.123,-0.045 -0.136,0.373 -0.123,-0.045 -0.136,0.373 -0.124,-0.045 -0.134,0.367 c 1.64,-6.721 3.362,-13.438 4.979,-20.167 l 0.125,0.045" />
    </clipPath>
    <clipPath
       id="clipPath5847-1"
       clipPathUnits="userSpaceOnUse">
      <path
         inkscape:connector-curvature="0"
         id="path5849-5"
         d="m 648.361,178.591 6.584,-18.04 -4.942,-1.803 -6.583,18.04 4.941,1.803" />
    </clipPath>
    <clipPath
       id="clipPath5853-4"
       clipPathUnits="userSpaceOnUse">
      <path
         inkscape:connector-curvature="0"
         id="path5855-2"
         d="m 650.243,159.113 c 1.016,4.52 0.897,8.973 -1.209,13.286 l -0.123,-0.045 -0.45,1.232 -0.123,-0.045 -0.226,0.619 -0.123,-0.045 -0.226,0.619 -0.125,-0.046 -0.179,0.491 -0.123,-0.045 -0.181,0.496 -0.124,-0.045 -0.136,0.373 -0.123,-0.045 -0.134,0.369 -0.125,-0.046 -0.136,0.373 -0.123,-0.045 -0.135,0.368 -0.123,-0.044 -0.136,0.373 -0.124,-0.045 -0.134,0.368 1.976,-8.098 0.327,-1.283 1.976,-8.098 0.239,-1.037 0.123,0.045" />
    </clipPath>
    <clipPath
       id="clipPath5867-0"
       clipPathUnits="userSpaceOnUse">
      <path
         inkscape:connector-curvature="0"
         id="path5869-9"
         d="m 624.015,166.14 2.519,-6.902 -2.577,-0.94 -2.519,6.901 2.577,0.941" />
    </clipPath>
    <clipPath
       id="clipPath5873-7"
       clipPathUnits="userSpaceOnUse">
      <path
         inkscape:connector-curvature="0"
         id="path5875-3"
         d="m 625.778,159.008 c -0.597,2.205 -1.086,4.928 -1.863,7.023 l -0.2,-1.754 0.171,-1.619 0.643,-2.145 0.123,0.045 0.181,-0.495 0.124,0.045 0.134,-0.369 0.123,0.045 0.181,-0.495 0.124,0.045 0.135,-0.371 0.124,0.045" />
    </clipPath>
    <clipPath
       id="clipPath5887-7"
       clipPathUnits="userSpaceOnUse">
      <path
         inkscape:connector-curvature="0"
         id="path5889-2"
         d="m 646.894,177.496 6.043,-16.558 -4.944,-1.804 -6.043,16.557 4.944,1.805" />
    </clipPath>
    <clipPath
       id="clipPath5893-6"
       clipPathUnits="userSpaceOnUse">
      <path
         inkscape:connector-curvature="0"
         id="path5895-0"
         d="m 648.646,159.654 c 0.809,4.188 0.833,7.356 -0.821,11.459 l -0.125,-0.046 -0.497,1.361 -0.123,-0.045 -0.271,0.742 -0.123,-0.045 -0.226,0.619 -0.124,-0.045 -0.179,0.493 -0.125,-0.046 -0.226,0.62 -0.122,-0.044 -0.135,0.37 -0.125,-0.045 -0.136,0.37 -0.123,-0.045 -0.135,0.371 -0.123,-0.045 -0.136,0.371 -0.123,-0.045 -0.134,0.366 -0.124,-0.046 -0.091,0.249 c 1.39,-5.651 2.86,-11.289 4.222,-16.939 l 0.125,0.045" />
    </clipPath>
    <clipPath
       id="clipPath5907-1"
       clipPathUnits="userSpaceOnUse">
      <path
         inkscape:connector-curvature="0"
         id="path5909-6"
         d="m 622.274,166.69 3.125,-8.564 -2.962,-1.081 -3.126,8.564 2.963,1.081" />
    </clipPath>
    <clipPath
       id="clipPath5913-5"
       clipPathUnits="userSpaceOnUse">
      <path
         inkscape:connector-curvature="0"
         id="path5915-7"
         d="m 624.52,157.85 -0.282,1.156 -1.636,6.403 -0.407,1.113 c -0.594,-2.839 -0.202,-3.205 0.288,-5.776 l 0.124,0.045 0.406,-1.113 0.123,0.045 0.225,-0.615 0.124,0.045 0.181,-0.495 0.123,0.045 0.135,-0.37 0.124,0.045 0.136,-0.373 0.123,0.045 0.09,-0.245 0.123,0.045" />
    </clipPath>
    <clipPath
       id="clipPath5927-5"
       clipPathUnits="userSpaceOnUse">
      <path
         inkscape:connector-curvature="0"
         id="path5929-4"
         d="m 645.126,176.01 5.457,-14.951 -3.955,-1.443 -5.456,14.951 3.954,1.443" />
    </clipPath>
    <clipPath
       id="clipPath5933-1"
       clipPathUnits="userSpaceOnUse">
      <path
         inkscape:connector-curvature="0"
         id="path5935-2"
         d="m 647.095,160.065 c 0.788,4 0.718,7.34 -1.149,11.202 l -0.123,-0.045 -0.362,0.992 -0.123,-0.045 -0.226,0.619 -0.123,-0.046 -0.18,0.492 -0.124,-0.045 -0.226,0.618 -0.123,-0.045 -0.135,0.369 -0.123,-0.045 -0.136,0.373 -0.123,-0.045 -0.135,0.369 -0.123,-0.045 -0.136,0.373 -0.125,-0.046 -0.089,0.246 c 1.228,-5.098 2.554,-10.185 3.76,-15.291 l 0.124,0.045" />
    </clipPath>
    <clipPath
       id="clipPath5947-0"
       clipPathUnits="userSpaceOnUse">
      <path
         inkscape:connector-curvature="0"
         id="path5949-0"
         d="m 644.255,174.992 4.87,-13.345 -3.95,-1.441 -4.87,13.345 3.95,1.441" />
    </clipPath>
    <clipPath
       id="clipPath5953-1"
       clipPathUnits="userSpaceOnUse">
      <path
         inkscape:connector-curvature="0"
         id="path5955-4"
         d="m 645.376,160.558 c 0.771,3.466 0.644,6.827 -1.036,10.123 l -0.123,-0.045 -0.316,0.866 -0.123,-0.044 -0.181,0.495 -0.124,-0.045 -0.225,0.616 -0.124,-0.045 -0.18,0.496 -0.123,-0.045 -0.136,0.37 -0.124,-0.045 -0.135,0.371 -0.124,-0.045 -0.135,0.37 -0.124,-0.045 -0.09,0.246 3.107,-12.728 0.191,-0.912 0.125,0.046" />
    </clipPath>
    <clipPath
       id="clipPath5967-6"
       clipPathUnits="userSpaceOnUse">
      <path
         inkscape:connector-curvature="0"
         id="path5969-0"
         d="m 641.138,172.454 3.72,-10.191 -2.964,-1.082 -3.719,10.192 2.963,1.081" />
    </clipPath>
    <clipPath
       id="clipPath5973-7"
       clipPathUnits="userSpaceOnUse">
      <path
         inkscape:connector-curvature="0"
         id="path5975-1"
         d="m 642.104,161.465 c 0.447,2.555 0.412,5.003 -0.751,7.428 l -0.124,-0.045 -0.36,0.988 -0.124,-0.045 -0.226,0.619 -0.123,-0.045 -0.181,0.494 -0.124,-0.045 -0.135,0.369 -0.122,-0.045 -0.136,0.372 -0.125,-0.045 -0.134,0.369 1.129,-4.628 0.328,-1.28 0.847,-3.472 0.237,-1.034 0.124,0.045" />
    </clipPath>
    <clipPath
       id="clipPath5987-7"
       clipPathUnits="userSpaceOnUse">
      <path
         inkscape:connector-curvature="0"
         id="path5989-7"
         d="m 642.704,173.726 4.326,-11.852 -3.954,-1.443 -4.326,11.852 3.954,1.443" />
    </clipPath>
    <clipPath
       id="clipPath5993-7"
       clipPathUnits="userSpaceOnUse">
      <path
         inkscape:connector-curvature="0"
         id="path5995-7"
         d="m 643.823,160.974 c 0.622,3.264 0.492,5.75 -0.999,8.875 l -0.123,-0.045 -0.317,0.867 -0.123,-0.044 -0.225,0.615 -0.123,-0.045 -0.18,0.494 -0.125,-0.045 -0.136,0.373 -0.123,-0.045 -0.135,0.37 -0.124,-0.045 -0.135,0.369 -0.124,-0.045 -0.135,0.37 c 0.983,-4.023 2.046,-8.035 3.003,-12.064 l 0.124,0.045" />
    </clipPath>
    <clipPath
       id="clipPath6007-3"
       clipPathUnits="userSpaceOnUse">
      <path
         inkscape:connector-curvature="0"
         id="path6009-3"
         d="m 610.864,169.947 7.14,-19.563 -5.931,-2.164 -7.14,19.562 5.931,2.165" />
    </clipPath>
    <clipPath
       id="clipPath6013-5"
       clipPathUnits="userSpaceOnUse">
      <path
         inkscape:connector-curvature="0"
         id="path6015-9"
         d="m 615.888,149.656 c -1.711,6.614 -3.208,13.608 -5.102,20.123 -1.077,-5.05 -0.825,-9.64 1.241,-14.527 l 0.123,0.044 0.451,-1.236 0.124,0.046 0.226,-0.619 0.124,0.046 0.226,-0.618 0.123,0.045 0.225,-0.619 0.124,0.046 0.181,-0.496 0.123,0.045 0.134,-0.368 0.123,0.045 0.136,-0.373 0.125,0.045 0.134,-0.367 0.124,0.045 0.136,-0.373 0.123,0.045 0.136,-0.373 0.124,0.045 0.134,-0.367 0.123,0.045 0.137,-0.374 0.122,0.045" />
    </clipPath>
    <clipPath
       id="clipPath6027-9"
       clipPathUnits="userSpaceOnUse">
      <path
         inkscape:connector-curvature="0"
         id="path6029-8"
         d="m 612.416,169.533 6.553,-17.958 -4.941,-1.804 -6.554,17.958 4.942,1.804" />
    </clipPath>
    <clipPath
       id="clipPath6033-1"
       clipPathUnits="userSpaceOnUse">
      <path
         inkscape:connector-curvature="0"
         id="path6035-8"
         d="m 616.978,150.894 c -1.615,5.669 -2.887,12.917 -4.641,18.471 -1.072,-4.725 -0.824,-8.737 1.083,-13.326 l 0.123,0.045 0.452,-1.238 0.123,0.046 0.179,-0.491 0.125,0.045 0.225,-0.619 0.124,0.046 0.226,-0.619 0.123,0.045 0.181,-0.496 0.123,0.045 0.134,-0.368 0.124,0.045 0.136,-0.374 0.124,0.046 0.135,-0.368 0.123,0.045 0.136,-0.374 0.123,0.045 0.135,-0.368 0.123,0.045 0.137,-0.373 0.124,0.045" />
    </clipPath>
    <clipPath
       id="clipPath6047-2"
       clipPathUnits="userSpaceOnUse">
      <path
         inkscape:connector-curvature="0"
         id="path6049-6"
         d="m 635.639,181.369 0.6,-1.645 -3.033,-1.107 -0.6,1.646 3.033,1.106" />
    </clipPath>
    <clipPath
       id="clipPath6053-6"
       clipPathUnits="userSpaceOnUse">
      <path
         inkscape:connector-curvature="0"
         id="path6055-0"
         d="m 636.013,179.686 -0.168,0.078 0.045,-0.123 z m -0.46,0.112 -0.169,0.079 0.046,-0.124 z m -0.293,0.033 -0.168,0.078 0.045,-0.123 z m -0.168,0.078 -0.169,0.079 0.045,-0.123 z m -0.292,0.034 -0.17,0.079 0.045,-0.124 z m -0.17,0.079 -0.291,0.033 0.044,-0.123 z m -0.291,0.033 -0.169,0.079 0.045,-0.124 z m -0.292,0.034 -0.169,0.078 0.045,-0.123 z m -0.169,0.078 -0.292,0.033 0.045,-0.123 z m -0.292,0.033 -0.169,0.079 0.045,-0.124 z m -0.292,0.034 -0.169,0.078 0.046,-0.123 z m -0.293,0.033 -0.169,0.078 0.045,-0.123 0.124,0.045" />
    </clipPath>
    <clipPath
       id="clipPath6067-3"
       clipPathUnits="userSpaceOnUse">
      <path
         inkscape:connector-curvature="0"
         id="path6069-8"
         d="m 614.135,169.04 5.967,-16.349 -4.944,-1.805 -5.967,16.35 4.944,1.804" />
    </clipPath>
    <clipPath
       id="clipPath6073-0"
       clipPathUnits="userSpaceOnUse">
      <path
         inkscape:connector-curvature="0"
         id="path6075-1"
         d="m 618.358,152.101 c -1.427,5.502 -2.684,11.362 -4.302,16.773 -0.968,-4.323 -0.685,-7.086 0.655,-11.384 l 0.123,0.045 0.496,-1.36 0.124,0.045 0.27,-0.741 0.123,0.045 0.227,-0.619 0.123,0.045 0.18,-0.494 0.125,0.046 0.224,-0.616 0.124,0.045 0.136,-0.372 0.123,0.045 0.136,-0.373 0.123,0.045 0.135,-0.368 0.123,0.045 0.136,-0.372 0.123,0.045 0.134,-0.368 0.125,0.045 0.09,-0.247 0.124,0.045" />
    </clipPath>
    <clipPath
       id="clipPath6087-2"
       clipPathUnits="userSpaceOnUse">
      <path
         inkscape:connector-curvature="0"
         id="path6089-5"
         d="m 636.123,183.226 0.691,-1.893 -3.475,-1.269 -0.691,1.894 3.475,1.268" />
    </clipPath>
    <clipPath
       id="clipPath6093-0"
       clipPathUnits="userSpaceOnUse">
      <path
         inkscape:connector-curvature="0"
         id="path6095-9"
         d="m 636.552,181.282 -0.17,0.079 0.045,-0.124 z m -0.462,0.112 -0.168,0.078 0.045,-0.123 z m -0.292,0.033 -0.168,0.079 0.045,-0.124 z m -0.168,0.079 -0.169,0.079 0.045,-0.124 z m -0.293,0.034 -0.168,0.078 0.045,-0.123 z m -0.168,0.078 -0.169,0.078 -0.292,0.034 0.045,-0.124 0.169,-0.079 z m -0.461,0.112 -0.292,0.033 0.045,-0.123 z m -0.292,0.033 -0.169,0.079 0.046,-0.124 z m -0.169,0.079 -0.293,0.033 0.045,-0.124 z m -0.293,0.033 -0.292,0.033 0.045,-0.123 z m -0.292,0.033 -0.168,0.079 0.045,-0.124 z m -0.292,0.034 -0.168,0.078 0.045,-0.123 z m -0.293,0.033 -0.167,0.078 0.045,-0.123 0.122,0.045" />
    </clipPath>
    <clipPath
       id="clipPath6107-4"
       clipPathUnits="userSpaceOnUse">
      <path
         inkscape:connector-curvature="0"
         id="path6109-7"
         d="m 615.687,168.626 5.425,-14.866 -3.954,-1.443 -5.426,14.866 3.955,1.443" />
    </clipPath>
    <clipPath
       id="clipPath6113-8"
       clipPathUnits="userSpaceOnUse">
      <path
         inkscape:connector-curvature="0"
         id="path6115-3"
         d="m 619.492,153.212 c -1.288,4.981 -2.419,10.355 -3.884,15.246 -0.837,-4.19 -0.625,-7.215 1.07,-11.37 l 0.123,0.045 0.316,-0.864 0.123,0.045 0.226,-0.619 0.123,0.045 0.226,-0.619 0.124,0.046 0.18,-0.492 0.123,0.045 0.136,-0.373 0.123,0.045 0.135,-0.369 0.123,0.045 0.136,-0.372 0.124,0.044 0.134,-0.368 0.124,0.045 0.092,-0.25 0.123,0.045" />
    </clipPath>
    <clipPath
       id="clipPath6127-5"
       clipPathUnits="userSpaceOnUse">
      <path
         inkscape:connector-curvature="0"
         id="path6129-1"
         d="m 617.407,168.134 4.839,-13.261 -3.949,-1.442 -4.839,13.262 3.949,1.441" />
    </clipPath>
    <clipPath
       id="clipPath6133-2"
       clipPathUnits="userSpaceOnUse">
      <path
         inkscape:connector-curvature="0"
         id="path6135-0"
         d="m 620.749,154.373 -0.237,1.033 -2.823,11.571 -0.36,0.987 c -0.803,-3.615 -0.573,-6.6 0.911,-10.169 l 0.123,0.045 0.315,-0.862 0.124,0.045 0.181,-0.496 0.123,0.046 0.225,-0.617 0.123,0.045 0.181,-0.496 0.124,0.046 0.135,-0.371 0.123,0.045 0.136,-0.371 0.123,0.045 0.135,-0.371 0.124,0.046 0.09,-0.246 0.124,0.045" />
    </clipPath>
    <clipPath
       id="clipPath6147-1"
       clipPathUnits="userSpaceOnUse">
      <path
         inkscape:connector-curvature="0"
         id="path6149-6"
         d="m 620.678,167.227 3.712,-10.171 -2.964,-1.081 -3.712,10.171 2.964,1.081" />
    </clipPath>
    <clipPath
       id="clipPath6153-4"
       clipPathUnits="userSpaceOnUse">
      <path
         inkscape:connector-curvature="0"
         id="path6155-0"
         d="m 623.263,156.691 c -0.881,3.137 -1.629,7.41 -2.664,10.369 -0.544,-2.787 -0.32,-4.731 0.627,-7.472 l 0.124,0.045 0.36,-0.989 0.123,0.045 0.226,-0.619 0.124,0.045 0.181,-0.494 0.123,0.045 0.135,-0.369 0.123,0.045 0.136,-0.372 0.124,0.045 0.134,-0.369 0.124,0.045" />
    </clipPath>
    <clipPath
       id="clipPath6167-6"
       clipPathUnits="userSpaceOnUse">
      <path
         inkscape:connector-curvature="0"
         id="path6169-1"
         d="m 619.003,167.596 4.254,-11.655 -3.954,-1.443 -4.254,11.655 3.954,1.443" />
    </clipPath>
    <clipPath
       id="clipPath6173-8"
       clipPathUnits="userSpaceOnUse">
      <path
         inkscape:connector-curvature="0"
         id="path6175-9"
         d="m 622.007,155.53 c -1.016,3.856 -1.883,8.147 -3.082,11.898 -0.714,-3.02 -0.414,-5.874 0.829,-8.798 l 0.125,0.045 0.316,-0.865 0.123,0.045 0.224,-0.616 0.124,0.045 0.181,-0.495 0.123,0.045 0.135,-0.37 0.124,0.046 0.136,-0.373 0.123,0.045 0.135,-0.369 0.124,0.045 0.136,-0.373 0.124,0.045" />
    </clipPath>
    <clipPath
       id="clipPath6187-8"
       clipPathUnits="userSpaceOnUse">
      <path
         inkscape:connector-curvature="0"
         id="path6189-4"
         d="m 636.682,185.25 0.826,-2.263 -4.283,-1.563 -0.826,2.263 4.283,1.563" />
    </clipPath>
    <clipPath
       id="clipPath6193-1"
       clipPathUnits="userSpaceOnUse">
      <path
         inkscape:connector-curvature="0"
         id="path6195-4"
         d="m 637.212,182.924 -0.168,0.078 0.045,-0.123 z m -0.293,0.033 -0.168,0.078 0.045,-0.123 z m -0.168,0.078 -0.168,0.079 0.045,-0.124 z m -0.293,0.034 -0.168,0.079 0.045,-0.124 z m -0.168,0.079 -0.168,0.078 -0.293,0.033 0.046,-0.124 0.167,-0.078 z m -0.461,0.111 -0.168,0.079 -0.293,0.033 -0.168,0.079 -1.168,0.134 0.045,-0.124 0.168,-0.079 0.877,-0.1 0.168,-0.078 0.293,-0.034 z m -1.797,0.325 -0.293,0.032 0.045,-0.123 z m -0.293,0.032 -0.293,0.034 0.045,-0.124 z m -0.293,0.034 -0.168,0.078 0.045,-0.123 z m -0.291,0.033 -0.17,0.078 0.046,-0.123 z m -0.293,0.033 -0.168,0.079 0.045,-0.124 0.123,0.045" />
    </clipPath>
    <clipPath
       id="clipPath6207-3"
       clipPathUnits="userSpaceOnUse">
      <path
         inkscape:connector-curvature="0"
         id="path6209-9"
         d="m 637.253,186.719 0.781,-2.14 -4.014,-1.465 -0.781,2.14 4.014,1.465" />
    </clipPath>
    <clipPath
       id="clipPath6213-8"
       clipPathUnits="userSpaceOnUse">
      <path
         inkscape:connector-curvature="0"
         id="path6215-8"
         d="m 637.749,184.52 -0.168,0.079 0.045,-0.124 z m -0.291,0.034 -0.168,0.078 0.045,-0.123 z m -0.168,0.078 -0.17,0.079 0.045,-0.125 z m -0.294,0.034 -0.168,0.078 0.045,-0.123 z m -0.168,0.078 -0.292,0.033 0.044,-0.123 z m -0.292,0.033 -0.169,0.079 0.045,-0.124 z m -0.169,0.079 -0.291,0.033 0.045,-0.123 z m -0.291,0.033 -0.17,0.078 -0.292,0.034 0.045,-0.124 0.169,-0.078 z m -0.462,0.112 -0.168,0.078 -0.585,0.067 0.045,-0.123 0.169,-0.079 0.291,-0.033 z m -0.753,0.145 -0.292,0.033 0.045,-0.123 z m -0.292,0.033 -0.292,0.034 0.045,-0.124 z m -0.292,0.034 -0.17,0.078 0.045,-0.123 z m -0.293,0.033 -0.168,0.078 0.045,-0.123 z m -0.291,0.034 -0.17,0.078 0.045,-0.124 0.125,0.046" />
    </clipPath>
    <clipPath
       id="clipPath6227-0"
       clipPathUnits="userSpaceOnUse">
      <path
         inkscape:connector-curvature="0"
         id="path6229-8"
         d="m 635.191,179.386 0.465,-1.276 -2.323,-0.848 -0.466,1.276 2.324,0.848" />
    </clipPath>
    <clipPath
       id="clipPath6233-7"
       clipPathUnits="userSpaceOnUse">
      <path
         inkscape:connector-curvature="0"
         id="path6235-7"
         d="m 635.476,178.09 -0.169,0.078 0.045,-0.123 z m -0.461,0.111 -0.169,0.079 0.045,-0.124 z m -0.292,0.034 -0.169,0.079 0.046,-0.124 z m -0.169,0.079 -0.169,0.077 0.045,-0.123 z m -0.169,0.077 -0.291,0.034 0.045,-0.124 z m -0.291,0.034 -0.292,0.034 0.045,-0.124 z m -0.292,0.034 -0.17,0.078 0.045,-0.123 z m -0.293,0.033 -0.168,0.079 0.045,-0.124 z m -0.293,0.033 -0.168,0.079 0.045,-0.124 0.123,0.045" />
    </clipPath>
    <clipPath
       id="clipPath6247-8"
       clipPathUnits="userSpaceOnUse">
      <path
         inkscape:connector-curvature="0"
         id="path6249-3"
         d="m 621.48,175.081 0.257,-0.703 -0.806,-0.294 -0.257,0.703 0.806,0.294" />
    </clipPath>
    <clipPath
       id="clipPath6253-8"
       clipPathUnits="userSpaceOnUse">
      <path
         inkscape:connector-curvature="0"
         id="path6255-3"
         d="m 621.018,174.353 -0.169,0.079 0.045,-0.124 z m 0.202,0.214 -0.169,0.079 0.045,-0.124 z m 0.325,0.259 -0.169,0.078 0.045,-0.123 0.124,0.045" />
    </clipPath>
    <clipPath
       id="clipPath6267-7"
       clipPathUnits="userSpaceOnUse">
      <path
         inkscape:connector-curvature="0"
         id="path6269-1"
         d="m 620.445,176.384 0.361,-0.989 -1.548,-0.564 -0.36,0.988 1.547,0.565" />
    </clipPath>
    <clipPath
       id="clipPath6273-0"
       clipPathUnits="userSpaceOnUse">
      <path
         inkscape:connector-curvature="0"
         id="path6275-7"
         d="m 619.376,175.014 -0.169,0.079 0.045,-0.124 z m 0.202,0.214 -0.168,0.079 0.045,-0.124 z m 0.202,0.214 -0.169,0.078 0.045,-0.123 z m 0.326,0.259 -0.292,0.033 0.045,-0.124 z m 0.201,0.213 -0.291,0.034 0.045,-0.124 z m 0.203,0.214 -0.169,0.078 0.045,-0.123 0.124,0.045" />
    </clipPath>
    <clipPath
       id="clipPath6287-3"
       clipPathUnits="userSpaceOnUse">
      <path
         inkscape:connector-curvature="0"
         id="path6289-4"
         d="m 618.927,177.136 0.074,-0.203 -0.203,-0.074 -0.074,0.203 0.203,0.074" />
    </clipPath>
    <clipPath
       id="clipPath6293-9"
       clipPathUnits="userSpaceOnUse">
      <path
         inkscape:connector-curvature="0"
         id="path6295-6"
         d="m 618.902,177.081 -0.124,-0.045 0.045,-0.123 0.124,0.045 -0.045,0.123" />
    </clipPath>
    <clipPath
       id="clipPath6307-5"
       clipPathUnits="userSpaceOnUse">
      <path
         inkscape:connector-curvature="0"
         id="path6309-1"
         d="m 618.004,178.853 0.451,-1.235 -1.794,-0.655 -0.451,1.235 1.794,0.655" />
    </clipPath>
    <clipPath
       id="clipPath6313-0"
       clipPathUnits="userSpaceOnUse">
      <path
         inkscape:connector-curvature="0"
         id="path6315-9"
         d="m 616.777,177.146 -0.167,0.079 0.045,-0.123 z m 0.203,0.214 -0.168,0.079 0.045,-0.124 z m 0.202,0.214 -0.169,0.078 0.045,-0.123 z m 0.202,0.214 -0.169,0.078 0.045,-0.123 z m 0.325,0.258 -0.292,0.034 0.045,-0.124 z m 0.203,0.214 -0.169,0.079 0.045,-0.124 z m 0.201,0.214 -0.168,0.079 0.045,-0.124 0.123,0.045" />
    </clipPath>
    <clipPath
       id="clipPath6327-9"
       clipPathUnits="userSpaceOnUse">
      <path
         inkscape:connector-curvature="0"
         id="path6329-6"
         d="m 616.8,180.234 0.496,-1.359 -2.043,-0.746 -0.496,1.36 2.043,0.745" />
    </clipPath>
    <clipPath
       id="clipPath6333-8"
       clipPathUnits="userSpaceOnUse">
      <path
         inkscape:connector-curvature="0"
         id="path6335-3"
         d="m 615.372,178.313 -0.169,0.079 0.045,-0.124 z m 0.202,0.214 -0.169,0.078 0.045,-0.123 z m 0.202,0.214 -0.169,0.079 0.045,-0.124 z m 0.202,0.214 -0.169,0.078 0.045,-0.123 z m 0.202,0.214 -0.169,0.078 0.045,-0.123 z m 0.325,0.258 -0.292,0.034 0.045,-0.124 z m 0.203,0.214 -0.169,0.079 0.045,-0.124 z m 0.201,0.214 -0.168,0.078 0.045,-0.123 0.123,0.045" />
    </clipPath>
    <clipPath
       id="clipPath6347-4"
       clipPathUnits="userSpaceOnUse">
      <path
         inkscape:connector-curvature="0"
         id="path6349-8"
         d="m 624.71,171.22 0.226,-0.618 -0.683,-0.25 -0.226,0.618 0.683,0.25" />
    </clipPath>
    <clipPath
       id="clipPath6353-4"
       clipPathUnits="userSpaceOnUse">
      <path
         inkscape:connector-curvature="0"
         id="path6355-9"
         d="m 624.371,170.536 -0.169,0.079 0.045,-0.124 z m 0.202,0.214 -0.169,0.079 0.046,-0.124 z m 0.202,0.214 -0.168,0.078 0.044,-0.123 0.124,0.045" />
    </clipPath>
    <clipPath
       id="clipPath6367-9"
       clipPathUnits="userSpaceOnUse">
      <path
         inkscape:connector-curvature="0"
         id="path6369-2"
         d="m 632.725,170.504 0.195,-0.533 -0.9,-0.329 -0.195,0.534 0.9,0.328" />
    </clipPath>
    <clipPath
       id="clipPath6373-5"
       clipPathUnits="userSpaceOnUse">
      <path
         inkscape:connector-curvature="0"
         id="path6375-5"
         d="m 632.833,169.984 -0.168,0.079 0.045,-0.124 z m -0.168,0.079 -0.169,0.078 0.045,-0.123 z m -0.292,0.033 -0.169,0.079 0.045,-0.124 z m -0.293,0.034 -0.169,0.078 0.045,-0.124 0.124,0.046" />
    </clipPath>
    <clipPath
       id="clipPath6387-3"
       clipPathUnits="userSpaceOnUse">
      <path
         inkscape:connector-curvature="0"
         id="path6389-3"
         d="m 633.746,173.958 0.285,-0.782 -1.343,-0.49 -0.285,0.782 1.343,0.49" />
    </clipPath>
    <clipPath
       id="clipPath6393-3"
       clipPathUnits="userSpaceOnUse">
      <path
         inkscape:connector-curvature="0"
         id="path6395-7"
         d="m 633.908,173.177 -0.168,0.078 0.045,-0.123 z m -0.46,0.112 -0.169,0.078 0.045,-0.123 z m -0.461,0.112 -0.169,0.078 0.045,-0.123 z m -0.292,0.033 -0.169,0.078 0.045,-0.123 0.124,0.045" />
    </clipPath>
    <clipPath
       id="clipPath6407-4"
       clipPathUnits="userSpaceOnUse">
      <path
         inkscape:connector-curvature="0"
         id="path6409-3"
         d="m 634.136,176.06 0.42,-1.151 -2.118,-0.773 -0.42,1.151 2.118,0.773" />
    </clipPath>
    <clipPath
       id="clipPath6413-8"
       clipPathUnits="userSpaceOnUse">
      <path
         inkscape:connector-curvature="0"
         id="path6415-0"
         d="m 634.401,174.897 -0.168,0.078 0.045,-0.123 z m -0.292,0.033 -0.169,0.079 0.046,-0.124 z m -0.169,0.079 -0.169,0.079 0.045,-0.124 z m -0.169,0.079 -0.292,0.033 0.045,-0.124 z m -0.292,0.033 -0.292,0.033 0.045,-0.124 z m -0.292,0.033 -0.292,0.034 0.045,-0.124 z m -0.292,0.034 -0.169,0.078 0.045,-0.124 z m -0.293,0.033 -0.168,0.078 0.045,-0.124 z m -0.292,0.033 -0.169,0.078 0.045,-0.123 0.124,0.045" />
    </clipPath>
    <clipPath
       id="clipPath6427-8"
       clipPathUnits="userSpaceOnUse">
      <path
         inkscape:connector-curvature="0"
         id="path6429-8"
         d="m 634.707,177.529 0.376,-1.029 -1.881,-0.686 -0.375,1.029 1.88,0.686" />
    </clipPath>
    <clipPath
       id="clipPath6433-0"
       clipPathUnits="userSpaceOnUse">
      <path
         inkscape:connector-curvature="0"
         id="path6435-6"
         d="m 634.939,176.493 -0.17,0.079 0.046,-0.124 z m -0.293,0.034 -0.169,0.078 0.045,-0.123 z m -0.169,0.078 -0.168,0.079 0.045,-0.124 z m -0.292,0.033 -0.168,0.079 0.045,-0.124 z m -0.168,0.079 -0.293,0.034 0.045,-0.124 z m -0.293,0.034 -0.168,0.078 0.045,-0.123 z m -0.292,0.032 -0.168,0.079 0.045,-0.124 z m -0.292,0.034 -0.169,0.079 0.046,-0.124 0.123,0.045" />
    </clipPath>
    <clipPath
       id="clipPath6447-8"
       clipPathUnits="userSpaceOnUse">
      <path
         inkscape:connector-curvature="0"
         id="path6449-1"
         d="m 622.808,173.746 0.271,-0.742 -1.301,-0.474 -0.27,0.741 1.3,0.475" />
    </clipPath>
    <clipPath
       id="clipPath6453-9"
       clipPathUnits="userSpaceOnUse">
      <path
         inkscape:connector-curvature="0"
         id="path6455-8"
         d="m 621.896,172.714 -0.169,0.078 0.045,-0.124 z m 0.202,0.213 -0.168,0.079 0.045,-0.124 z m 0.326,0.259 -0.293,0.034 0.046,-0.124 z m 0.202,0.214 -0.293,0.033 0.045,-0.123 z m 0.202,0.214 -0.169,0.078 0.045,-0.123 0.124,0.045" />
    </clipPath>
    <clipPath
       id="clipPath6467-9"
       clipPathUnits="userSpaceOnUse">
      <path
         inkscape:connector-curvature="0"
         id="path6469-7"
         d="m 639.696,171.228 3.137,-8.596 -2.963,-1.081 -3.137,8.595 2.963,1.082" />
    </clipPath>
    <clipPath
       id="clipPath6473-2"
       clipPathUnits="userSpaceOnUse">
      <path
         inkscape:connector-curvature="0"
         id="path6475-2"
         d="m 640.507,162.003 c 0.477,2.108 0.369,3.713 -0.412,5.731 l -0.124,-0.045 -0.406,1.113 -0.123,-0.045 -0.225,0.615 -0.123,-0.045 -0.181,0.496 -0.123,-0.046 -0.136,0.371 -0.123,-0.045 -0.136,0.372 -0.124,-0.045 -0.089,0.245 1.964,-7.684 0.237,-1.033 0.124,0.045" />
    </clipPath>
    <clipPath
       id="clipPath6487-8"
       clipPathUnits="userSpaceOnUse">
      <path
         inkscape:connector-curvature="0"
         id="path6489-2"
         d="m 629.055,149.843 0.555,-1.522 -2.86,-1.044 -0.555,1.522 2.86,1.044" />
    </clipPath>
    <clipPath
       id="clipPath6493-8"
       clipPathUnits="userSpaceOnUse">
      <path
         inkscape:connector-curvature="0"
         id="path6495-9"
         d="m 629.408,148.292 -0.168,0.078 0.045,-0.123 z m -0.291,0.033 -0.169,0.078 0.045,-0.124 z m -0.293,0.033 -0.168,0.079 0.045,-0.124 z m -0.168,0.079 -0.292,0.034 0.045,-0.124 z m -0.292,0.034 -0.293,0.033 0.046,-0.124 z m -0.293,0.033 -0.292,0.033 0.045,-0.123 z m -0.292,0.033 -0.169,0.079 0.045,-0.124 z m -0.169,0.079 -0.291,0.033 0.045,-0.123 z m -0.291,0.033 -0.17,0.078 0.045,-0.123 z m -0.293,0.033 -0.168,0.079 0.045,-0.124 z m -0.168,0.079 -0.17,0.078 0.045,-0.124 z m -0.293,0.033 -0.169,0.079 0.046,-0.124 0.123,0.045" />
    </clipPath>
    <clipPath
       id="clipPath6507-0"
       clipPathUnits="userSpaceOnUse">
      <path
         inkscape:connector-curvature="0"
         id="path6509-7"
         d="m 630.667,158.833 0.199,-0.545 -0.998,-0.364 -0.198,0.544 0.997,0.365" />
    </clipPath>
    <clipPath
       id="clipPath6513-8"
       clipPathUnits="userSpaceOnUse">
      <path
         inkscape:connector-curvature="0"
         id="path6515-1"
         d="m 630.79,158.317 -0.168,0.079 0.045,-0.124 z m -0.292,0.034 -0.292,0.033 0.045,-0.123 z m -0.292,0.033 -0.169,0.079 0.046,-0.124 z m -0.292,0.034 -0.169,0.078 0.046,-0.123 0.123,0.045" />
    </clipPath>
    <clipPath
       id="clipPath6527-5"
       clipPathUnits="userSpaceOnUse">
      <path
         inkscape:connector-curvature="0"
         id="path6529-8"
         d="m 627.253,165.324 1.38,-3.779 -1.45,-0.529 -1.379,3.779 1.449,0.529" />
    </clipPath>
    <clipPath
       id="clipPath6533-6"
       clipPathUnits="userSpaceOnUse">
      <path
         inkscape:connector-curvature="0"
         id="path6535-1"
         d="m 628.247,161.45 -0.327,1.28 -0.373,1.405 -0.406,1.111 -0.1,-0.876 0.057,-0.539 0.508,-1.776 0.123,0.045 0.136,-0.371 0.124,0.046 0.134,-0.37 0.124,0.045" />
    </clipPath>
    <clipPath
       id="clipPath6547-2"
       clipPathUnits="userSpaceOnUse">
      <path
         inkscape:connector-curvature="0"
         id="path6549-4"
         d="m 628.858,164.765 0.785,-2.151 -0.859,-0.313 -0.785,2.15 0.859,0.314" />
    </clipPath>
    <clipPath
       id="clipPath6553-2"
       clipPathUnits="userSpaceOnUse">
      <path
         inkscape:connector-curvature="0"
         id="path6555-5"
         d="m 629.381,162.564 -0.282,1.157 -0.361,0.988 -0.033,-0.292 0.011,-0.416 0.283,-1.157 0.123,0.045 0.135,-0.371 0.124,0.046" />
    </clipPath>
    <clipPath
       id="clipPath6567-8"
       clipPathUnits="userSpaceOnUse">
      <path
         inkscape:connector-curvature="0"
         id="path6569-6"
         d="m 633.647,166.22 0.781,-2.14 -0.988,-0.361 -0.781,2.14 0.988,0.361" />
    </clipPath>
    <clipPath
       id="clipPath6573-2"
       clipPathUnits="userSpaceOnUse">
      <path
         inkscape:connector-curvature="0"
         id="path6575-6"
         d="m 633.919,163.94 -0.011,0.415 -0.496,1.36 -0.124,-0.045 -0.135,0.37 0.643,-2.146 0.123,0.046" />
    </clipPath>
    <clipPath
       id="clipPath6587-5"
       clipPathUnits="userSpaceOnUse">
      <path
         inkscape:connector-curvature="0"
         id="path6589-3"
         d="m 635.32,167.391 1.379,-3.778 -1.977,-0.722 -1.379,3.778 1.977,0.722" />
    </clipPath>
    <clipPath
       id="clipPath6593-9"
       clipPathUnits="userSpaceOnUse">
      <path
         inkscape:connector-curvature="0"
         id="path6595-2"
         d="m 635.561,163.279 0.1,0.876 -0.114,1.079 -0.169,0.079 -0.405,1.111 -0.124,-0.045 -0.135,0.371 -0.124,-0.045 -0.135,0.37 0.327,-1.28 0.373,-1.404 0.282,-1.158 0.124,0.046" />
    </clipPath>
    <clipPath
       id="clipPath6607-4"
       clipPathUnits="userSpaceOnUse">
      <path
         inkscape:connector-curvature="0"
         id="path6609-6"
         d="m 636.948,168.685 1.97,-5.396 -1.978,-0.722 -1.97,5.396 1.978,0.722" />
    </clipPath>
    <clipPath
       id="clipPath6613-1"
       clipPathUnits="userSpaceOnUse">
      <path
         inkscape:connector-curvature="0"
         id="path6615-8"
         d="m 637.281,162.786 0.033,0.292 0.101,0.877 -0.115,1.079 -0.811,2.224 -0.124,-0.045 -0.135,0.37 -0.123,-0.045 -0.135,0.371 -0.124,-0.046 -0.136,0.372 1.118,-4.214 0.327,-1.28 0.124,0.045" />
    </clipPath>
    <clipPath
       id="clipPath6627-2"
       clipPathUnits="userSpaceOnUse">
      <path
         inkscape:connector-curvature="0"
         id="path6629-1"
         d="m 638.407,170.058 2.589,-7.094 -2.969,-1.083 -2.589,7.093 2.969,1.084" />
    </clipPath>
    <clipPath
       id="clipPath6633-1"
       clipPathUnits="userSpaceOnUse">
      <path
         inkscape:connector-curvature="0"
         id="path6635-9"
         d="m 638.832,162.372 c 0.416,1.883 0.068,3.879 -0.782,5.596 l -0.123,-0.045 -0.18,0.494 -0.124,-0.045 -0.136,0.371 -0.124,-0.045 -0.18,0.494 -0.124,-0.045 -0.135,0.369 c 0.574,-2.394 1.237,-4.79 1.784,-7.189 l 0.124,0.045" />
    </clipPath>
    <clipPath
       id="clipPath6647-7"
       clipPathUnits="userSpaceOnUse">
      <path
         inkscape:connector-curvature="0"
         id="path6649-6"
         d="m 625.53,165.827 1.968,-5.395 -1.977,-0.722 -1.969,5.395 1.978,0.722" />
    </clipPath>
    <clipPath
       id="clipPath6653-2"
       clipPathUnits="userSpaceOnUse">
      <path
         inkscape:connector-curvature="0"
         id="path6655-9"
         d="m 626.99,160.291 -1.117,4.213 -0.451,1.235 -0.134,-1.169 0.113,-1.078 0.689,-2.27 0.124,0.045 0.135,-0.37 0.123,0.044 0.135,-0.37 0.124,0.045 0.135,-0.37 0.124,0.045" />
    </clipPath>
    <clipPath
       id="clipPath6667-5"
       clipPathUnits="userSpaceOnUse">
      <path
         inkscape:connector-curvature="0"
         id="path6669-2"
         d="m 630.571,157.257 0.24,-0.658 -1.169,-0.426 -0.24,0.657 1.169,0.427" />
    </clipPath>
    <clipPath
       id="clipPath6673-0"
       clipPathUnits="userSpaceOnUse">
      <path
         inkscape:connector-curvature="0"
         id="path6675-0"
         d="m 630.714,156.609 -0.169,0.079 0.045,-0.124 z m -0.292,0.034 -0.169,0.078 0.045,-0.123 z m -0.293,0.033 -0.168,0.078 0.045,-0.123 z m -0.168,0.078 -0.169,0.079 0.045,-0.124 z m -0.293,0.034 -0.168,0.078 0.045,-0.123 0.123,0.045" />
    </clipPath>
    <clipPath
       id="clipPath6687-3"
       clipPathUnits="userSpaceOnUse">
      <path
         inkscape:connector-curvature="0"
         id="path6689-9"
         d="m 639.55,157.033 0.266,-0.729 -0.931,-0.339 -0.265,0.728 0.93,0.34" />
    </clipPath>
    <clipPath
       id="clipPath6693-1"
       clipPathUnits="userSpaceOnUse">
      <path
         inkscape:connector-curvature="0"
         id="path6695-8"
         d="m 638.963,156.259 -0.169,0.079 0.045,-0.124 z m 0.202,0.214 -0.169,0.078 0.045,-0.123 z m 0.202,0.213 -0.169,0.079 0.045,-0.124 z m 0.202,0.214 -0.169,0.079 0.045,-0.124 0.124,0.045" />
    </clipPath>
    <clipPath
       id="clipPath6707-1"
       clipPathUnits="userSpaceOnUse">
      <path
         inkscape:connector-curvature="0"
         id="path6709-9"
         d="m 629.775,155.567 0.195,-0.534 -0.9,-0.329 -0.195,0.534 0.9,0.329" />
    </clipPath>
    <clipPath
       id="clipPath6713-5"
       clipPathUnits="userSpaceOnUse">
      <path
         inkscape:connector-curvature="0"
         id="path6715-3"
         d="m 629.883,155.046 -0.167,0.079 0.045,-0.124 z m -0.291,0.034 -0.169,0.078 0.045,-0.123 z m -0.461,0.111 -0.169,0.079 0.045,-0.124 0.124,0.045" />
    </clipPath>
    <clipPath
       id="clipPath6727-2"
       clipPathUnits="userSpaceOnUse">
      <path
         inkscape:connector-curvature="0"
         id="path6729-5"
         d="m 629.868,154.34 0.376,-1.028 -1.881,-0.687 -0.375,1.029 1.88,0.686" />
    </clipPath>
    <clipPath
       id="clipPath6733-2"
       clipPathUnits="userSpaceOnUse">
      <path
         inkscape:connector-curvature="0"
         id="path6735-5"
         d="m 630.1,153.304 -0.169,0.079 0.045,-0.124 z m -0.292,0.034 -0.169,0.078 0.045,-0.123 z m -0.293,0.033 -0.168,0.079 0.045,-0.124 z m -0.168,0.079 -0.293,0.033 0.045,-0.124 z m -0.293,0.033 -0.168,0.079 0.045,-0.124 z m -0.292,0.034 -0.169,0.078 0.046,-0.124 z m -0.169,0.078 -0.168,0.079 0.045,-0.124 z m -0.292,0.033 -0.168,0.079 0.045,-0.124 0.123,0.045" />
    </clipPath>
    <clipPath
       id="clipPath6747-8"
       clipPathUnits="userSpaceOnUse">
      <path
         inkscape:connector-curvature="0"
         id="path6749-6"
         d="m 630.15,152.903 0.511,-1.399 -2.687,-0.981 -0.51,1.399 2.686,0.981" />
    </clipPath>
    <clipPath
       id="clipPath6753-7"
       clipPathUnits="userSpaceOnUse">
      <path
         inkscape:connector-curvature="0"
         id="path6755-7"
         d="m 630.484,151.485 -0.169,0.078 0.045,-0.124 z m -0.292,0.033 -0.169,0.078 0.045,-0.123 z m -0.293,0.033 -0.168,0.079 0.045,-0.124 z m -0.292,0.034 -0.168,0.078 0.045,-0.123 z m -0.168,0.078 -0.293,0.033 0.045,-0.123 z m -0.293,0.033 -0.292,0.034 0.045,-0.124 z m -0.292,0.034 -0.292,0.033 0.045,-0.123 z m -0.292,0.033 -0.169,0.079 0.045,-0.123 z m -0.169,0.079 -0.292,0.033 0.045,-0.124 z m -0.292,0.033 -0.168,0.079 0.045,-0.124 z m -0.292,0.033 -0.169,0.079 0.045,-0.124 0.124,0.045" />
    </clipPath>
    <clipPath
       id="clipPath6767-2"
       clipPathUnits="userSpaceOnUse">
      <path
         inkscape:connector-curvature="0"
         id="path6769-2"
         d="m 629.389,151.085 0.42,-1.152 -2.148,-0.784 -0.421,1.152 2.149,0.784" />
    </clipPath>
    <clipPath
       id="clipPath6773-9"
       clipPathUnits="userSpaceOnUse">
      <path
         inkscape:connector-curvature="0"
         id="path6775-4"
         d="m 629.654,149.922 -0.168,0.079 0.045,-0.124 z m -0.292,0.033 -0.168,0.078 0.044,-0.123 z m -0.292,0.033 -0.169,0.079 0.045,-0.124 z m -0.292,0.034 -0.169,0.078 0.045,-0.123 z m -0.169,0.078 -0.292,0.033 0.045,-0.123 z m -0.292,0.033 -0.169,0.079 0.045,-0.123 z m -0.293,0.034 -0.168,0.079 0.045,-0.124 z m -0.461,0.111 -0.168,0.079 0.045,-0.124 0.123,0.045" />
    </clipPath>
    <clipPath
       id="clipPath6787-1"
       clipPathUnits="userSpaceOnUse">
      <path
         inkscape:connector-curvature="0"
         id="path6789-9"
         d="m 628.924,148.395 0.645,-1.77 -3.301,-1.205 -0.646,1.77 3.302,1.205" />
    </clipPath>
    <clipPath
       id="clipPath6793-6"
       clipPathUnits="userSpaceOnUse">
      <path
         inkscape:connector-curvature="0"
         id="path6795-9"
         d="m 629.332,146.584 -0.168,0.078 0.045,-0.123 z m -0.292,0.033 -0.168,0.078 0.045,-0.123 z m -0.293,0.033 -0.168,0.079 0.045,-0.124 z m -0.168,0.079 -0.293,0.033 0.045,-0.123 z m -0.293,0.033 -0.291,0.034 0.045,-0.124 z m -0.291,0.034 -0.169,0.078 -0.292,0.033 0.044,-0.123 0.17,-0.079 z m -0.461,0.111 -0.292,0.034 0.045,-0.124 z m -0.292,0.034 -0.169,0.078 0.046,-0.123 z m -0.169,0.078 -0.292,0.033 0.045,-0.123 z m -0.292,0.033 -0.169,0.079 0.045,-0.124 z m -0.293,0.034 -0.169,0.078 0.046,-0.123 z m -0.169,0.078 -0.168,0.079 0.045,-0.124 z m -0.291,0.034 -0.169,0.078 0.046,-0.124 0.123,0.046" />
    </clipPath>
    <clipPath
       id="clipPath6807-8"
       clipPathUnits="userSpaceOnUse">
      <path
         inkscape:connector-curvature="0"
         id="path6809-2"
         d="m 629.399,147.168 0.871,-2.387 -4.398,-1.606 -0.872,2.388 4.399,1.605" />
    </clipPath>
    <clipPath
       id="clipPath6813-5"
       clipPathUnits="userSpaceOnUse">
      <path
         inkscape:connector-curvature="0"
         id="path6815-5"
         d="m 630.008,144.73 -0.168,0.079 0.045,-0.124 z m -0.291,0.034 -0.169,0.078 0.045,-0.123 z m -0.169,0.078 -0.293,0.034 0.046,-0.124 z m -0.293,0.034 -0.292,0.033 0.045,-0.124 z m -0.292,0.033 c -0.559,0.162 -1.655,0.341 -2.259,0.436 l 0.045,-0.124 0.338,-0.157 0.291,-0.034 0.17,-0.078 1.168,-0.133 z m -2.259,0.436 -0.168,0.078 -0.293,0.033 0.045,-0.123 0.168,-0.079 z m -0.461,0.111 -0.291,0.034 0.045,-0.124 z m -0.291,0.034 -0.17,0.078 0.045,-0.123 z m -0.17,0.078 -0.168,0.079 0.045,-0.124 z m -0.292,0.034 -0.169,0.078 0.045,-0.124 0.124,0.046" />
    </clipPath>
    <clipPath
       id="clipPath6827-4"
       clipPathUnits="userSpaceOnUse">
      <path
         inkscape:connector-curvature="0"
         id="path6829-9"
         d="m 629.277,145.583 0.917,-2.511 -4.766,-1.739 -0.916,2.511 4.765,1.739" />
    </clipPath>
    <clipPath
       id="clipPath6833-1"
       clipPathUnits="userSpaceOnUse">
      <path
         inkscape:connector-curvature="0"
         id="path6835-2"
         d="m 629.933,143.022 -0.17,0.078 0.045,-0.124 z m -0.294,0.033 -0.168,0.079 0.045,-0.124 z m -0.292,0.034 -0.168,0.079 -0.878,0.1 -0.167,0.078 -0.585,0.067 -0.169,0.078 -0.877,0.1 -0.168,0.078 -0.292,0.034 0.046,-0.124 0.336,-0.156 0.292,-0.034 0.169,-0.078 0.292,-0.034 0.169,-0.078 1.754,-0.2 z m -3.304,0.614 -0.293,0.033 0.045,-0.123 z m -0.293,0.033 -0.168,0.078 0.045,-0.123 z m -0.291,0.033 -0.169,0.079 0.045,-0.123 z m -0.169,0.079 -0.17,0.078 0.045,-0.123 z m -0.292,0.034 -0.169,0.078 0.045,-0.124 0.124,0.046" />
    </clipPath>
    <linearGradient
       inkscape:collect="always"
       xlink:href="#linearGradient13528"
       id="linearGradient8691"
       x1="134.27405"
       y1="74.232063"
       x2="134.78967"
       y2="58.833096"
       gradientUnits="userSpaceOnUse"
       gradientTransform="matrix(0.91095479,0,0,0.91095479,-254.60107,-136.45961)" />
    <linearGradient
       inkscape:collect="always"
       xlink:href="#linearGradient8685"
       id="linearGradient8801"
       x1="134.44614"
       y1="68.945045"
       x2="134.32301"
       y2="71.917381"
       gradientUnits="userSpaceOnUse"
       gradientTransform="matrix(-1.0245301,0.02954823,-0.03893602,-1.3500345,274.74463,159.38833)" />
  </defs>
  <sodipodi:namedview
     id="base"
     pagecolor="#ffffff"
     bordercolor="#666666"
     borderopacity="1.0"
     inkscape:pageopacity="0.0"
     inkscape:pageshadow="2"
     inkscape:zoom="22.4"
     inkscape:cx="25.669643"
     inkscape:cy="16.316964"
     inkscape:document-units="mm"
     inkscape:current-layer="layer1"
     showgrid="false"
     fit-margin-top="0"
     fit-margin-left="0"
     fit-margin-right="0"
     fit-margin-bottom="0"
     inkscape:window-width="1920"
     inkscape:window-height="1017"
     inkscape:window-x="-8"
     inkscape:window-y="-8"
     inkscape:window-maximized="1"
     inkscape:pagecheckerboard="1"
     inkscape:lockguides="false" />
  <metadata
     id="metadata111791">
    <rdf:RDF>
      <cc:Work
         rdf:about="">
        <dc:format>image/svg+xml</dc:format>
        <dc:type
           rdf:resource="http://purl.org/dc/dcmitype/StillImage" />
      </cc:Work>
    </rdf:RDF>
  </metadata>
  <g
     inkscape:label="Layer 1"
     inkscape:groupmode="layer"
     id="layer1"
     transform="translate(-127.95617,-62.862058)">
    <circle
       style="fill:#2b2f2a;fill-opacity:1;stroke:none;stroke-width:0.287084;stroke-opacity:1"
       id="path6114"
       cx="134.30617"
       cy="69.212059"
       r="5.4252234" />
    <ellipse
       style="fill:url(#linearGradient8691);fill-opacity:1;stroke:none;stroke-width:0.228042;stroke-opacity:1"
       id="path6114-0"
       cx="-132.25421"
       cy="-73.055473"
       rx="4.2902141"
       ry="4.328815"
       transform="rotate(178.348)" />
    <path
       id="ellipse8773"
       style="fill:url(#linearGradient8801);fill-opacity:1;stroke:none;stroke-width:0.135466;stroke-opacity:1"
       d="m 134.38695,67.755075 c 1.40238,-0.04116 2.31814,-0.707452 2.6171,-1.686954 l -5.56212,0.0019 c 0.28214,1.02636 1.47015,1.727128 2.94502,1.685087 z"
       sodipodi:nodetypes="ccccc" />
    <g
       clip-path="url(#clipPath5771-7)"
       id="g5769"
       style="fill:#780000;fill-opacity:1;stroke:none"
       transform="matrix(0.23839031,0.07634597,0.07634597,-0.23839031,-44.6288,60.165825)">
      <g
         clip-path="url(#clipPath5777-8)"
         id="g5775"
         style="fill:#780000;fill-opacity:1;stroke:none" />
    </g>
    <path
       id="path5821"
       style="fill:none;stroke:#c9cacc;stroke-width:0.0540685;stroke-linecap:round;stroke-linejoin:round;stroke-miterlimit:10;stroke-dasharray:none;stroke-opacity:1"
       d="m 139.63934,69.189515 c -0.0394,-1.514466 -0.57154,-2.763445 -1.5965,-3.779637 -0.99201,-0.983572 -2.24522,-1.504892 -3.76008,-1.531663 -1.51423,0.03944 -2.76321,0.571629 -3.77957,1.563804 -0.98341,1.024794 -1.50481,2.278237 -1.53141,3.792628 0.0394,1.514467 0.57154,2.763446 1.56355,3.747018 1.02488,1.016427 2.27832,1.537831 3.7928,1.564198 1.51446,-0.03935 2.76336,-0.571309 3.74661,-1.596424 1.01659,-0.99209 1.53815,-2.245212 1.5646,-3.759924 z"
       inkscape:connector-curvature="0" />
    <circle
       style="fill:#ddf3f0;fill-opacity:1;stroke:none;stroke-width:2.31363;stroke-linecap:round;stroke-miterlimit:10;stroke-dasharray:none;stroke-opacity:1"
       id="path2057"
       cx="134.30617"
       cy="64.397591"
       r="0.39214101" />
  </g>
</svg>
