<?xml version="1.0" encoding="UTF-8" standalone="no"?>
<!-- Created with Inkscape (http://www.inkscape.org/) -->

<svg
   width="12.69999mm"
   height="12.7mm"
   viewBox="0 0 12.69999 12.7"
   version="1.1"
   id="svg111794"
   inkscape:version="1.1 (c68e22c387, 2021-05-23)"
   sodipodi:docname="vector-knob.svg"
   xmlns:inkscape="http://www.inkscape.org/namespaces/inkscape"
   xmlns:sodipodi="http://sodipodi.sourceforge.net/DTD/sodipodi-0.dtd"
   xmlns="http://www.w3.org/2000/svg"
   xmlns:svg="http://www.w3.org/2000/svg"
   xmlns:rdf="http://www.w3.org/1999/02/22-rdf-syntax-ns#"
   xmlns:cc="http://creativecommons.org/ns#"
   xmlns:dc="http://purl.org/dc/elements/1.1/">
  <defs
     id="defs111788">
    <linearGradient
       id="linearGradient5707-0"
       gradientTransform="translate(711.58704,167.3062)"
       gradientUnits="userSpaceOnUse"
       y2="0"
       x2="34.336899"
       y1="0"
       x1="-34.336899">
      <stop
         id="stop5709-6"
         offset="0"
         style="stop-opacity:1;stop-color:#231f20" />
      <stop
         id="stop5711-6"
         offset="1"
         style="stop-opacity:1;stop-color:#a7a9ac" />
    </linearGradient>
    <linearGradient
       id="linearGradient5727-1"
       spreadMethod="pad"
       gradientTransform="matrix(0.999115,0.04205,-0.04205,0.999115,711.58673,167.30647)"
       gradientUnits="userSpaceOnUse"
       y2="0"
       x2="29.6171"
       y1="0"
       x1="-29.6171">
      <stop
         id="stop5729-8"
         offset="0"
         style="stop-opacity:1;stop-color:#bcbec0" />
      <stop
         id="stop5731-4"
         offset="1"
         style="stop-opacity:1;stop-color:#231f20" />
    </linearGradient>
  </defs>
  <sodipodi:namedview
     id="base"
     pagecolor="#ffffff"
     bordercolor="#666666"
     borderopacity="1.0"
     inkscape:pageopacity="0.0"
     inkscape:pageshadow="2"
     inkscape:zoom="11.2"
     inkscape:cx="-7.1428572"
     inkscape:cy="30.044643"
     inkscape:document-units="mm"
     inkscape:current-layer="layer1"
     showgrid="false"
     fit-margin-top="0"
     fit-margin-left="0"
     fit-margin-right="0"
     fit-margin-bottom="0"
     inkscape:window-width="1904"
     inkscape:window-height="1041"
     inkscape:window-x="0"
     inkscape:window-y="0"
     inkscape:window-maximized="0"
     inkscape:pagecheckerboard="1" />
  <metadata
     id="metadata111791">
    <rdf:RDF>
      <cc:Work
         rdf:about="">
        <dc:format>image/svg+xml</dc:format>
        <dc:type
           rdf:resource="http://purl.org/dc/dcmitype/StillImage" />
        <dc:title />
      </cc:Work>
    </rdf:RDF>
  </metadata>
  <g
     inkscape:label="Layer 1"
     inkscape:groupmode="layer"
     id="layer1"
     transform="translate(-127.95617,-62.862058)">
    <g
       id="g47792"
       transform="matrix(-0.04739918,0.17482529,-0.1741613,-0.04757989,249.97886,81.516233)">
      <g
         transform="matrix(0,1,1,0,-64.539368,-75.385851)"
         id="g5697">
        <g
           id="g5699">
          <g
             id="g5705">
            <path
               id="path5713"
               style="fill:url(#linearGradient5707-0);stroke:none"
               d="m 744.747,176.192 c 4.908,-18.314 -5.961,-37.139 -24.275,-42.046 -18.314,-4.907 -37.138,5.961 -42.045,24.275 -4.908,18.314 5.961,37.138 24.275,42.045 18.314,4.908 37.138,-5.961 42.045,-24.274"
               inkscape:connector-curvature="0" />
          </g>
        </g>
      </g>
      <path
         id="path5715"
         style="fill:none;stroke:#231f20;stroke-width:1;stroke-linecap:butt;stroke-linejoin:miter;stroke-miterlimit:22.926;stroke-dasharray:none;stroke-opacity:1"
         d="m 111.65263,669.36115 c -18.313998,4.908 -37.138998,-5.961 -42.045998,-24.275 -4.907,-18.314 5.961,-37.138 24.275,-42.045 18.313998,-4.908 37.137998,5.961 42.044998,24.275 4.908,18.314 -5.961,37.138 -24.274,42.045 z"
         inkscape:connector-curvature="0" />
      <g
         transform="matrix(0,1,1,0,-64.539368,-75.385851)"
         id="g5717">
        <g
           id="g5719">
          <g
             id="g5725">
            <path
               id="path5733"
               style="fill:url(#linearGradient5727-1);stroke:none"
               d="m 715.871,192.809 c 0,0 6.334,-7.819 17.28,-12.755 -2.51,-11.093 0.803,-21.461 0.803,-21.461 -10.016,-4.542 -16.278,-14.009 -16.278,-14.009 0,0 -9.212,4.114 -21.103,3.993 -3.862,11.256 -10.035,18.987 -10.035,18.987 0,0 5.648,9.038 8.588,19.686 10.778,0.62 20.745,5.559 20.745,5.559"
               inkscape:connector-curvature="0" />
          </g>
        </g>
      </g>
      <path
         id="path5735"
         style="fill:none;stroke:#6c6e70;stroke-width:1;stroke-linecap:butt;stroke-linejoin:miter;stroke-miterlimit:22.926;stroke-dasharray:none;stroke-opacity:1"
         d="m 128.26963,640.48515 c 0,0 -7.819,6.334 -12.755,17.28 -11.093,-2.51 -21.460998,0.803 -21.460998,0.803 -4.542,-10.016 -14.009,-16.278 -14.009,-16.278 0,0 4.114,-9.212 3.993,-21.103 11.256,-3.862 18.986998,-10.035 18.986998,-10.035 0,0 9.038,5.648 19.686,8.588 0.62,10.778 5.559,20.745 5.559,20.745 z"
         inkscape:connector-curvature="0" />
      <path
         id="path5737"
         style="fill:#ffffff;fill-opacity:1;fill-rule:nonzero;stroke:none"
         d="m 100.77463,637.94315 -0.604,-2.254 -15.335998,4.109 0.604,2.254 15.335998,-4.109"
         inkscape:connector-curvature="0" />
      <path
         id="path5739"
         style="fill:#ffffff;fill-opacity:1;fill-rule:nonzero;stroke:none"
         d="m 76.625632,644.41415 -0.604,-2.255 -3.138,0.841 0.604,2.255 3.138,-0.841"
         inkscape:connector-curvature="0" />
    </g>
  </g>
</svg>
